<svg xmlns="http://www.w3.org/2000/svg" xmlns:xlink="http://www.w3.org/1999/xlink" viewBox="0 0 183.71 176.33"><defs><style>.cls-1,.cls-2{fill:#fff;}.cls-1,.cls-8{stroke:#023335;stroke-miterlimit:10;}.cls-3{clip-path:url(#clip-path);}.cls-4{fill:#edf5ea;}.cls-5{fill:#bcd6b5;}.cls-6{fill:#176e6d;}.cls-7{fill:#023335;}.cls-8{fill:none;}</style><clipPath id="clip-path" transform="translate(24.55)"><ellipse class="cls-1" cx="74.5" cy="75" rx="74" ry="74.5"/></clipPath></defs><g id="Laag_2" data-name="Laag 2"><g id="Layer_5" data-name="Layer 5"><ellipse class="cls-2" cx="99.05" cy="75" rx="74" ry="74.5"/><g class="cls-3"><path class="cls-4" d="M-17.21,73.25S13.57,51.41,21.16,48.91,76.91,62.15,89.6,63.26s14.63-32.74,32-32.74c22.68,0,34.18,64.71,34.18,64.71L-24.55,134.42" transform="translate(24.55)"/><path class="cls-5" d="M-10,77.27S22.25,45.75,50.57,45.75,105.16,78,127.11,78s22.79-29.8,25.21-26.24,4.09,74.4,4.09,74.4L-5.38,151.67" transform="translate(24.55)"/><path class="cls-6" d="M-6.14,89.13S26.51,66.55,37.39,67c14.25.62,45.31,24.79,61,25.47,15.18.66,50.52-25.82,50.52-25.82L159.16,91.1,156.33,124-3.74,133.84Z" transform="translate(24.55)"/><path class="cls-7" d="M-2.44,138.52C4,134,43.72,94.11,69.49,94.11c24.24,0,17,18.78,39.87,17.78C129.87,111,138,99.11,146.8,99.11c15.41,0-28.35,70.28-37.49,74.86S8.56,175.06,8.56,175.06" transform="translate(24.55)"/></g><ellipse class="cls-8" cx="99.05" cy="75" rx="74" ry="74.5"/></g></g></svg>