<?xml version="1.0" standalone="no"?>
<!DOCTYPE svg PUBLIC "-//W3C//DTD SVG 20010904//EN"
 "http://www.w3.org/TR/2001/REC-SVG-20010904/DTD/svg10.dtd">
<svg version="1.0" xmlns="http://www.w3.org/2000/svg"
 width="151.000000pt" height="151.000000pt" viewBox="0 0 151.000000 151.000000"
 preserveAspectRatio="xMidYMid meet">
<metadata>
Created by potrace 1.11, written by Peter Selinger 2001-2013
</metadata>
<g transform="translate(0.000000,151.000000) scale(0.100000,-0.100000)"
fill="#000000" stroke="none">
<path d="M690 1499 c-98 -9 -159 -25 -247 -64 -96 -44 -156 -86 -231 -163
-101 -103 -175 -249 -200 -391 -12 -68 -8 -230 7 -293 44 -186 159 -355 311
-458 73 -49 104 -65 180 -89 84 -26 118 -32 214 -36 555 -23 932 564 691 1074
-131 275 -425 446 -725 420z"/>
</g>
</svg>
